<?xml version="1.0" encoding="UTF-8"?>
<svg id="Capa_2" data-name="Capa 2" xmlns="http://www.w3.org/2000/svg" xmlns:xlink="http://www.w3.org/1999/xlink" viewBox="0 0 1319.97 1362.13">
  <defs>
    <style>
      .cls-1 {
        fill: url(#Degradado_sin_nombre_12);
      }

      .cls-1, .cls-2, .cls-3, .cls-4, .cls-5 {
        stroke-width: 0px;
      }

      .cls-2 {
        fill: url(#Degradado_sin_nombre_12-3);
      }

      .cls-3 {
        fill: url(#Degradado_sin_nombre_12-4);
      }

      .cls-4 {
        fill: url(#Degradado_sin_nombre_12-5);
      }

      .cls-5 {
        fill: url(#Degradado_sin_nombre_12-2);
      }
    </style>
    <linearGradient id="Degradado_sin_nombre_12" data-name="Degradado sin nombre 12" x1="-16.17" y1="728.32" x2="1308.31" y2="728.32" gradientUnits="userSpaceOnUse">
      <stop offset=".27" stop-color="#0ef2cd"/>
      <stop offset="1" stop-color="#3370db"/>
    </linearGradient>
    <linearGradient id="Degradado_sin_nombre_12-2" data-name="Degradado sin nombre 12" x1="-16.17" y1="731.32" x2="1308.39" y2="731.32" xlink:href="#Degradado_sin_nombre_12"/>
    <linearGradient id="Degradado_sin_nombre_12-3" data-name="Degradado sin nombre 12" x1="-16.17" y1="166.22" x2="1308.39" y2="166.22" xlink:href="#Degradado_sin_nombre_12"/>
    <linearGradient id="Degradado_sin_nombre_12-4" data-name="Degradado sin nombre 12" x1="-16.2" y1="166.22" x2="1308.36" y2="166.22" xlink:href="#Degradado_sin_nombre_12"/>
    <linearGradient id="Degradado_sin_nombre_12-5" data-name="Degradado sin nombre 12" x1="0" y1="681.07" x2="1319.97" y2="681.07" xlink:href="#Degradado_sin_nombre_12"/>
  </defs>
  <g id="logo">
    <g>
      <polygon class="cls-1" points="545.02 204.08 545.02 1252.57 472.61 1182.52 396.63 1109.06 324.27 1039.07 324.27 877.34 396.63 930.27 396.63 1008.3 472.61 1081.81 472.61 329.47 325.58 414.37 325.58 330.78 472.61 245.87 545.02 204.08"/>
      <polygon class="cls-5" points="1060.7 377.62 1060.7 972.96 1001.26 1030.46 961.93 1068.48 892.68 1135.48 844.21 1182.37 773.38 1250.89 773.38 211.74 844.21 252.65 844.21 1081.65 892.68 1034.82 892.68 280.58 961.93 320.59 961.93 967.82 1001.26 929.75 1001.26 343.28 1060.7 377.62"/>
      <path class="cls-2" d="m309.91,166.22c0,10.13-8.19,18.33-18.33,18.33s-18.33-8.19-18.33-18.33,8.24-18.33,18.33-18.33,18.33,8.24,18.33,18.33Z"/>
      <path class="cls-3" d="m1046.69,166.22c0,10.13-8.19,18.33-18.33,18.33s-18.33-8.19-18.33-18.33,8.24-18.33,18.33-18.33,18.33,8.24,18.33,18.33Z"/>
      <path class="cls-4" d="m1153.72,0H166.24C74.46,0,0,74.46,0,166.24s74.46,166.24,166.24,166.24c78.45,0,144.19-54.29,161.67-127.39,10.4-9.71,16.86-23.52,16.86-38.86s-6.46-29.09-16.86-38.8c-9.5-8.87-22.26-14.33-36.34-14.33s-27.78,5.88-37.44,15.39c-9.71,9.66-15.7,23-15.7,37.75s5.99,28.09,15.65,37.75c-14.6,34.08-48.41,57.92-87.85,57.92-52.82,0-95.62-42.85-95.62-95.67s42.79-95.62,95.62-95.62h457.82v1258.48l2.15,2.05,26.04,25.15,6.04,5.83,6.04-5.83,24.68-23.84,6.88-6.62V70.62h457.82c52.82,0,95.62,42.79,95.62,95.62s-42.79,95.67-95.62,95.67c-39.43,0-73.25-23.84-87.85-57.92,9.66-9.66,15.65-23,15.65-37.75s-5.99-28.09-15.7-37.75c-9.66-9.5-22.84-15.39-37.44-15.39s-26.83,5.46-36.34,14.33c-10.4,9.71-16.86,23.52-16.86,38.8s6.46,29.14,16.86,38.86c17.49,73.09,83.23,127.39,161.67,127.39,91.79,0,166.24-74.4,166.24-166.24S1245.51,0,1153.72,0ZM260.81,152.07c5.3-11.66,17.07-19.8,30.77-19.8,18.8,0,33.97,15.23,33.97,33.97s-15.18,33.97-33.97,33.97c-13.71,0-25.47-8.14-30.77-19.8-2.05-4.31-3.15-9.08-3.15-14.18s1.1-9.87,3.15-14.18Zm798.34,28.35c-5.3,11.66-17.07,19.8-30.77,19.8-18.8,0-33.97-15.23-33.97-33.97s15.18-33.97,33.97-33.97c13.7,0,25.47,8.14,30.77,19.8,2.05,4.31,3.15,9.08,3.15,14.18s-1.1,9.87-3.15,14.18Z"/>
    </g>
  </g>
</svg>