<?xml version="1.0" encoding="UTF-8"?>
<svg id="Capa_2" data-name="Capa 2" xmlns="http://www.w3.org/2000/svg" xmlns:xlink="http://www.w3.org/1999/xlink" viewBox="0 0 3472.11 1362.13">
  <defs>
    <style>
      .cls-1 {
        fill: url(#Degradado_sin_nombre_12);
      }

      .cls-1, .cls-2, .cls-3, .cls-4, .cls-5, .cls-6, .cls-7, .cls-8, .cls-9, .cls-10, .cls-11 {
        stroke-width: 0px;
      }

      .cls-2 {
        fill: url(#Degradado_sin_nombre_12-3);
      }

      .cls-3 {
        fill: url(#Degradado_sin_nombre_12-6);
      }

      .cls-4 {
        fill: url(#Degradado_sin_nombre_12-8);
      }

      .cls-5 {
        fill: url(#Degradado_sin_nombre_12-10);
      }

      .cls-6 {
        fill: url(#Degradado_sin_nombre_12-7);
      }

      .cls-7 {
        fill: url(#Degradado_sin_nombre_12-4);
      }

      .cls-8 {
        fill: #fff;
      }

      .cls-9 {
        fill: url(#Degradado_sin_nombre_12-9);
      }

      .cls-10 {
        fill: url(#Degradado_sin_nombre_12-5);
      }

      .cls-11 {
        fill: url(#Degradado_sin_nombre_12-2);
      }
    </style>
    <linearGradient id="Degradado_sin_nombre_12" data-name="Degradado sin nombre 12" x1="2411.91" y1="682.33" x2="3437.9" y2="682.33" gradientUnits="userSpaceOnUse">
      <stop offset=".27" stop-color="#0ef2cd"/>
      <stop offset="1" stop-color="#3370db"/>
    </linearGradient>
    <linearGradient id="Degradado_sin_nombre_12-2" data-name="Degradado sin nombre 12" y1="747.92" x2="3437.9" y2="747.92" xlink:href="#Degradado_sin_nombre_12"/>
    <linearGradient id="Degradado_sin_nombre_12-3" data-name="Degradado sin nombre 12" x1="2411.91" y1="811.27" x2="3437.9" y2="811.27" xlink:href="#Degradado_sin_nombre_12"/>
    <linearGradient id="Degradado_sin_nombre_12-4" data-name="Degradado sin nombre 12" x1="2411.91" y1="745.19" x2="3437.9" y2="745.19" xlink:href="#Degradado_sin_nombre_12"/>
    <linearGradient id="Degradado_sin_nombre_12-5" data-name="Degradado sin nombre 12" x1="2411.91" y1="748.37" x2="3437.9" y2="748.37" xlink:href="#Degradado_sin_nombre_12"/>
    <linearGradient id="Degradado_sin_nombre_12-6" data-name="Degradado sin nombre 12" x1="-16.17" y1="728.32" x2="1308.31" y2="728.32" xlink:href="#Degradado_sin_nombre_12"/>
    <linearGradient id="Degradado_sin_nombre_12-7" data-name="Degradado sin nombre 12" x1="-16.17" y1="731.32" x2="1308.39" y2="731.32" xlink:href="#Degradado_sin_nombre_12"/>
    <linearGradient id="Degradado_sin_nombre_12-8" data-name="Degradado sin nombre 12" x1="-16.17" y1="166.22" x2="1308.39" y2="166.22" xlink:href="#Degradado_sin_nombre_12"/>
    <linearGradient id="Degradado_sin_nombre_12-9" data-name="Degradado sin nombre 12" x1="-16.2" y1="166.22" x2="1308.36" y2="166.22" xlink:href="#Degradado_sin_nombre_12"/>
    <linearGradient id="Degradado_sin_nombre_12-10" data-name="Degradado sin nombre 12" x1="0" y1="681.07" x2="1319.97" y2="681.07" xlink:href="#Degradado_sin_nombre_12"/>
  </defs>
  <g id="J">
    <path class="cls-8" d="m1393.92,838.56c-10.74,50.07-69.93,88.82-118.96,86.11l-37.15-2.06,15.49-74.09,15.33.59c19.13.73,44.51-6.58,49.3-28.24l80.19-385.75h81.28l-85.47,403.45Z"/>
  </g>
  <g id="U">
    <path class="cls-8" d="m1439.33,847.05l60.43-302.17h75.33l-56.4,281.87c-4.03,20.3,7.81,36.69,27.4,36.69s38.63-16.4,42.66-36.69l56.4-281.87h75.33l-78.16,390.4h-57.25l-.35-31.23c-19.13,22.64-47.19,37.48-75.07,37.48-48.97,0-80.81-42.17-70.34-94.48Z"/>
  </g>
  <g id="S">
    <path class="cls-8" d="m1939.69,676.06h-71.65l5.35-26.55c3.09-17.96-8.19-32.8-24.67-32.8s-33.14,14.84-36.96,33.58c-1.54,8.59-.22,17.96,4.01,23.42l75.74,74.18c21.22,21.86,24.42,53.09,19.05,81.2-12.23,62.46-67.31,112.43-123.91,112.43s-92.53-49.97-80.3-111.65l5.35-27.33h71.65l-5.35,27.33c-3.82,18.74,6.75,33.57,23.94,33.57s33.14-14.83,36.96-34.35c1.53-7.81.92-16.4-4.73-22.64l-79.28-78.09c-17.7-17.17-20.17-49.19-14.81-76.51,12.25-63.25,67.31-113.22,123.92-113.22s92.52,49.97,81.02,110.87l-5.35,26.55Z"/>
  </g>
  <g id="T">
    <path class="cls-8" d="m2095.09,572.81h54.44l-12.4,60.95h-53.98l-41.35,207.17c-1.58,9.48,3.42,18.01,15.95,19.04l28.93,2.38-6.91,67.74-55.65-.54c-6.41-.06-12.85-.84-18.9-2.96-27.43-9.58-43.8-38.14-37.6-68.38l43.07-224.44h-39.74l11.23-60.95h40.07l21.97-98.43h73.79l-22.92,98.43Z"/>
  </g>
  <g id="O">
    <path class="cls-8" d="m2346.61,834.36c-12.54,59.21-72.54,107.17-134.2,107.17s-100.8-47.96-88.26-107.17l37.56-173.13c12.53-58.46,73.3-106.42,134.19-106.42s100.8,47.96,88.27,106.42l-37.56,173.13Zm-40.5-173.13c4.15-17.24-8.15-31.48-26.1-31.48s-36.1,14.24-40.25,31.48l-37.56,173.13c-3.37,17.98,8.14,32.22,26.09,32.22s36.89-14.99,40.26-32.22l37.56-173.13Z"/>
  </g>
  <g id="W">
    <path class="cls-1" d="m2672.02,928.31h-98.34c-1.12,0-2.18-.48-2.93-1.31-.75-.83-1.11-1.94-.99-3.05l30.77-286.6-92.81,288.23c-.52,1.63-2.04,2.73-3.75,2.73h-96.1c-1.11,0-2.17-.47-2.92-1.29-.74-.82-1.11-1.92-1-3.03l46.95-484.08c.19-2.02,1.89-3.56,3.92-3.56h80.43c1.13,0,2.21.49,2.96,1.34.75.86,1.09,1.99.94,3.11l-42.82,326.96,98.61-328.61c.5-1.67,2.04-2.8,3.77-2.8h83.12c1.12,0,2.18.47,2.93,1.3.74.83,1.1,1.94.99,3.05l-34.56,329.74,93.82-331.23c.48-1.7,2.03-2.87,3.79-2.87h76.03c1.26,0,2.44.6,3.17,1.61.74,1.01.96,2.32.58,3.51l-152.81,484.08c-.51,1.64-2.04,2.75-3.75,2.75Zm-93.95-7.88h91.06l150.33-476.2h-67.68l-105.49,372.41c-.56,1.97-2.56,3.19-4.53,2.79-2.01-.38-3.38-2.25-3.17-4.28l38.87-370.93h-75.81l-111.77,372.47c-.59,1.97-2.63,3.15-4.6,2.72-2-.43-3.34-2.33-3.08-4.36l48.58-370.83h-72.37l-46.18,476.2h88.89l103.69-322.02c.62-1.92,2.55-3.09,4.57-2.65,1.97.42,3.31,2.26,3.1,4.27l-34.39,320.39Z"/>
  </g>
  <g id="A">
    <g>
      <path class="cls-11" d="m2824.83,932.42c-22.26,0-41.7-8.86-54.74-24.96-14.36-17.72-19.55-42.35-14.26-67.6.04-5.56,2.58-77.75,101.13-116.27,30.11-8.53,75.57-25.74,78.4-38.46l1.98-26.41c1.78-7.44.47-14.18-3.64-19.4-4.44-5.65-11.7-8.89-19.92-8.89-4.27,0-8.55.77-12.73,2.31-14.56,5.32-24.74,20-25.33,36.53l-.46,13.16c-.05,1.38-1.18,2.47-2.55,2.47h-69.78c-.69,0-1.35-.28-1.84-.78s-.74-1.17-.72-1.87c1.3-36.92,13.11-65.43,36.1-87.16,23.49-22.2,50.93-31.67,91.78-31.67,31.56,0,57.44,10.94,72.88,30.8,13.61,17.51,17.75,40.33,11.66,64.26l-46.11,271.33c-.21,1.23-1.27,2.13-2.52,2.13h-67.95c-.72,0-1.41-.3-1.89-.84-.49-.53-.72-1.24-.66-1.95l2.09-22.32c-17.98,17.21-41.26,25.6-70.94,25.6Zm88.96-307.1c9.8,0,18.52,3.95,23.94,10.85,5.09,6.48,6.74,14.77,4.65,23.35l-1.97,26.36c-4.45,20.12-73.92,40.31-81.82,42.55-98.29,38.43-97.67,110.9-97.65,111.63,0,.2-.02.4-.06.59-5.06,23.83-.25,47.01,13.18,63.59,12.05,14.88,30.08,23.06,50.77,23.06,31.04,0,54.68-9.55,72.26-29.2.73-.82,1.91-1.1,2.92-.64,1.01.44,1.63,1.48,1.52,2.57l-2.51,26.77h62.98l45.79-269.4c5.74-22.57,1.92-43.83-10.7-60.07-14.45-18.59-38.9-28.83-68.85-28.83-39.42,0-65.82,9.06-88.27,30.27-21.41,20.24-32.68,46.76-34.39,80.98h64.65l.37-10.7c.66-18.58,12.19-35.12,28.68-41.15,4.74-1.73,9.61-2.62,14.49-2.62Z"/>
      <path class="cls-2" d="m2866.9,871.14c-13.21,0-25.05-6.56-32.16-17.99-7.7-12.39-7.8-27.26-.28-39.76,8.56-14.21,20.68-26.13,35.04-34.45l46.95-27.2c.85-.49,1.9-.45,2.7.09.81.54,1.25,1.49,1.12,2.46l-10.37,78.93c-2.66,20.2-19.32,36.09-39.62,37.79-1.13.1-2.26.14-3.37.14Zm47.63-112.39l-42.46,24.6c-13.62,7.89-25.11,19.19-33.22,32.66-6.52,10.82-6.43,23.7.24,34.43,6.67,10.73,18.12,16.51,30.77,15.46,17.93-1.5,32.64-15.54,34.98-33.37l9.7-73.78Z"/>
    </g>
  </g>
  <g id="R">
    <path class="cls-7" d="m3083.35,926.9h-73.03c-.76,0-1.48-.34-1.96-.93-.48-.59-.67-1.36-.52-2.11l72.8-351.56c.25-1.17,1.28-2.02,2.48-2.02h63.29c.73,0,1.42.31,1.9.86.48.55.7,1.28.61,1.99l-5.04,38.2c27.98-42.02,50.63-52.12,97.92-46.37.69.08,1.32.45,1.73,1.01.42.55.58,1.26.46,1.94l-12.5,70.52c-.21,1.19-1.24,2.07-2.45,2.09l-14.42.2c-44.38.62-71.47,22.91-80.51,66.25l-48.28,217.94c-.26,1.15-1.28,1.98-2.47,1.98Zm-69.92-5.06h67.89l47.84-215.93c9.59-45.94,38.32-69.58,85.38-70.24l12.33-.17,11.67-65.83c-46.86-5.17-67.04,6.32-96.49,53.9-.63,1.02-1.86,1.46-3,1.05-1.12-.4-1.81-1.53-1.66-2.71l6.14-46.58h-58.35l-71.75,346.5Zm215.57-283.84h.05-.05Z"/>
  </g>
  <g id="E">
    <path class="cls-10" d="m3299.68,937.8c-31.53,0-58.47-11.71-75.87-32.98-16.29-19.91-22.2-46.06-16.62-73.64l34.7-167.37c11.83-57.83,72.69-104.88,135.68-104.88,31.62,0,58.63,11.76,76.06,33.11,16.15,19.79,21.99,45.65,16.43,72.79l-22.36,108.68c-.24,1.17-1.27,2.01-2.47,2.01h-143.14l-11.92,56.68c-1.32,7.44.34,14.43,4.69,19.61,4.59,5.48,11.78,8.5,20.24,8.5,17.27,0,33.64-12.82,37.27-29.18l5.39-25.34c.25-1.16,1.27-1.99,2.46-1.99h78.06c.76,0,1.48.34,1.96.93.48.59.66,1.36.5,2.11l-5.4,25.36c-12.56,58.23-73.43,105.59-135.68,105.59Zm77.89-373.83c-60.72,0-119.37,45.25-130.74,100.86l-34.7,167.37c-5.27,26.05.27,50.71,15.59,69.44,16.42,20.08,41.98,31.13,71.97,31.13,60.01,0,118.67-45.58,130.75-101.61l4.75-22.31h-72.9l-4.98,23.37c-4.2,18.91-22.34,33.15-42.19,33.15-9.97,0-18.54-3.66-24.11-10.3-5.32-6.34-7.37-14.8-5.77-23.81l12.35-58.76c.25-1.16,1.28-2,2.47-2h143.13l21.94-106.66c5.25-25.63-.23-49.99-15.4-68.59-16.45-20.15-42.07-31.25-72.15-31.25Zm1.95,150.69h-67.13c-.76,0-1.48-.34-1.95-.93-.48-.59-.67-1.36-.51-2.11l10.02-47.82c4.22-18.21,22.74-32.43,42.19-32.43,10.07,0,18.69,3.7,24.29,10.42,5.19,6.24,7.18,14.4,5.59,22.98l-10.04,47.88c-.25,1.16-1.28,2-2.47,2Zm-64.03-5.04h61.98l9.6-45.82c1.3-7.03-.31-13.72-4.52-18.78-4.62-5.55-11.87-8.61-20.41-8.61-17.2,0-33.58,12.51-37.27,28.48l-9.37,44.73Z"/>
  </g>
  <g id="logo">
    <g>
      <polygon class="cls-3" points="545.02 204.08 545.02 1252.57 472.61 1182.52 396.63 1109.06 324.27 1039.07 324.27 877.34 396.63 930.27 396.63 1008.3 472.61 1081.81 472.61 329.47 325.58 414.37 325.58 330.78 472.61 245.87 545.02 204.08"/>
      <polygon class="cls-6" points="1060.7 377.62 1060.7 972.96 1001.26 1030.46 961.93 1068.48 892.68 1135.48 844.21 1182.37 773.38 1250.89 773.38 211.74 844.21 252.65 844.21 1081.65 892.68 1034.82 892.68 280.58 961.93 320.59 961.93 967.82 1001.26 929.75 1001.26 343.28 1060.7 377.62"/>
      <path class="cls-4" d="m309.91,166.22c0,10.13-8.19,18.33-18.33,18.33s-18.33-8.19-18.33-18.33,8.24-18.33,18.33-18.33,18.33,8.24,18.33,18.33Z"/>
      <path class="cls-9" d="m1046.69,166.22c0,10.13-8.19,18.33-18.33,18.33s-18.33-8.19-18.33-18.33,8.24-18.33,18.33-18.33,18.33,8.24,18.33,18.33Z"/>
      <path class="cls-5" d="m1153.72,0H166.24C74.46,0,0,74.46,0,166.24s74.46,166.24,166.24,166.24c78.45,0,144.19-54.29,161.67-127.39,10.4-9.71,16.86-23.52,16.86-38.86s-6.46-29.09-16.86-38.8c-9.5-8.87-22.26-14.33-36.34-14.33s-27.78,5.88-37.44,15.39c-9.71,9.66-15.7,23-15.7,37.75s5.99,28.09,15.65,37.75c-14.6,34.08-48.41,57.92-87.85,57.92-52.82,0-95.62-42.85-95.62-95.67s42.79-95.62,95.62-95.62h457.82v1258.48l2.15,2.05,26.04,25.15,6.04,5.83,6.04-5.83,24.68-23.84,6.88-6.62V70.62h457.82c52.82,0,95.62,42.79,95.62,95.62s-42.79,95.67-95.62,95.67c-39.43,0-73.25-23.84-87.85-57.92,9.66-9.66,15.65-23,15.65-37.75s-5.99-28.09-15.7-37.75c-9.66-9.5-22.84-15.39-37.44-15.39s-26.83,5.46-36.34,14.33c-10.4,9.71-16.86,23.52-16.86,38.8s6.46,29.14,16.86,38.86c17.49,73.09,83.23,127.39,161.67,127.39,91.79,0,166.24-74.4,166.24-166.24S1245.51,0,1153.72,0ZM260.81,152.07c5.3-11.66,17.07-19.8,30.77-19.8,18.8,0,33.97,15.23,33.97,33.97s-15.18,33.97-33.97,33.97c-13.71,0-25.47-8.14-30.77-19.8-2.05-4.31-3.15-9.08-3.15-14.18s1.1-9.87,3.15-14.18Zm798.34,28.35c-5.3,11.66-17.07,19.8-30.77,19.8-18.8,0-33.97-15.23-33.97-33.97s15.18-33.97,33.97-33.97c13.7,0,25.47,8.14,30.77,19.8,2.05,4.31,3.15,9.08,3.15,14.18s-1.1,9.87-3.15,14.18Z"/>
    </g>
  </g>
</svg>