<?xml version="1.0" encoding="UTF-8"?>
<svg id="Capa_2" data-name="Capa 2" xmlns="http://www.w3.org/2000/svg" xmlns:xlink="http://www.w3.org/1999/xlink" viewBox="0 0 3477.11 1362.13">
  <defs>
    <style>
      .cls-1 {
        fill: url(#Degradado_sin_nombre_12);
      }

      .cls-1, .cls-2, .cls-3, .cls-4, .cls-5, .cls-6, .cls-7, .cls-8, .cls-9, .cls-10, .cls-11, .cls-12 {
        stroke-width: 0px;
      }

      .cls-2 {
        fill: url(#Degradado_sin_nombre_12-3);
      }

      .cls-3 {
        fill: url(#Degradado_sin_nombre_12-6);
      }

      .cls-4 {
        fill: url(#Degradado_sin_nombre_12-8);
      }

      .cls-5 {
        fill: url(#Degradado_sin_nombre_12-10);
      }

      .cls-6 {
        fill: url(#Degradado_sin_nombre_12-7);
      }

      .cls-7 {
        fill: url(#Degradado_sin_nombre_12-4);
      }

      .cls-8 {
        fill: #fff;
      }

      .cls-9 {
        fill: url(#Degradado_sin_nombre_12-9);
      }

      .cls-10 {
        fill: url(#Degradado_sin_nombre_12-5);
      }

      .cls-11 {
        fill: url(#Degradado_sin_nombre_12-11);
      }

      .cls-12 {
        fill: url(#Degradado_sin_nombre_12-2);
      }
    </style>
    <linearGradient id="Degradado_sin_nombre_12" data-name="Degradado sin nombre 12" x1="2410.63" y1="682.33" x2="3448.29" y2="682.33" gradientUnits="userSpaceOnUse">
      <stop offset=".27" stop-color="#0ef2cd"/>
      <stop offset="1" stop-color="#3370db"/>
    </linearGradient>
    <linearGradient id="Degradado_sin_nombre_12-2" data-name="Degradado sin nombre 12" y1="747.92" y2="747.92" xlink:href="#Degradado_sin_nombre_12"/>
    <linearGradient id="Degradado_sin_nombre_12-3" data-name="Degradado sin nombre 12" y1="811.27" y2="811.27" xlink:href="#Degradado_sin_nombre_12"/>
    <linearGradient id="Degradado_sin_nombre_12-4" data-name="Degradado sin nombre 12" y1="745.19" y2="745.19" xlink:href="#Degradado_sin_nombre_12"/>
    <linearGradient id="Degradado_sin_nombre_12-5" data-name="Degradado sin nombre 12" y1="748.37" y2="748.37" xlink:href="#Degradado_sin_nombre_12"/>
    <linearGradient id="Degradado_sin_nombre_12-6" data-name="Degradado sin nombre 12" y1="673.02" y2="673.02" xlink:href="#Degradado_sin_nombre_12"/>
    <linearGradient id="Degradado_sin_nombre_12-7" data-name="Degradado sin nombre 12" x1="-16.17" y1="728.32" x2="1308.31" y2="728.32" xlink:href="#Degradado_sin_nombre_12"/>
    <linearGradient id="Degradado_sin_nombre_12-8" data-name="Degradado sin nombre 12" x1="-16.17" y1="731.32" x2="1308.39" y2="731.32" xlink:href="#Degradado_sin_nombre_12"/>
    <linearGradient id="Degradado_sin_nombre_12-9" data-name="Degradado sin nombre 12" x1="-16.17" y1="166.22" x2="1308.39" y2="166.22" xlink:href="#Degradado_sin_nombre_12"/>
    <linearGradient id="Degradado_sin_nombre_12-10" data-name="Degradado sin nombre 12" x1="-16.2" y1="166.22" x2="1308.36" y2="166.22" xlink:href="#Degradado_sin_nombre_12"/>
    <linearGradient id="Degradado_sin_nombre_12-11" data-name="Degradado sin nombre 12" x1="0" y1="681.07" x2="1319.97" y2="681.07" xlink:href="#Degradado_sin_nombre_12"/>
  </defs>
  <g id="J">
    <path class="cls-8" d="m1393.92,838.56c-10.74,50.07-69.93,88.82-118.96,86.11l-37.15-2.06,15.49-74.09,15.33.59c19.13.73,44.51-6.58,49.3-28.24l80.19-385.75h81.28l-85.47,403.45Z"/>
  </g>
  <g id="U">
    <path class="cls-8" d="m1439.33,847.05l60.43-302.17h75.33l-56.4,281.87c-4.03,20.3,7.81,36.69,27.4,36.69s38.63-16.4,42.66-36.69l56.4-281.87h75.33l-78.16,390.4h-57.25l-.35-31.23c-19.13,22.64-47.19,37.48-75.07,37.48-48.97,0-80.81-42.17-70.34-94.48Z"/>
  </g>
  <g id="S">
    <path class="cls-8" d="m1939.69,676.06h-71.65l5.35-26.55c3.09-17.96-8.19-32.8-24.67-32.8s-33.14,14.84-36.96,33.58c-1.54,8.59-.22,17.96,4.01,23.42l75.74,74.18c21.22,21.86,24.42,53.09,19.05,81.2-12.23,62.46-67.31,112.43-123.91,112.43s-92.53-49.97-80.3-111.65l5.35-27.33h71.65l-5.35,27.33c-3.82,18.74,6.75,33.57,23.94,33.57s33.14-14.83,36.96-34.35c1.53-7.81.92-16.4-4.73-22.64l-79.28-78.09c-17.7-17.17-20.17-49.19-14.81-76.51,12.25-63.25,67.31-113.22,123.92-113.22s92.52,49.97,81.02,110.87l-5.35,26.55Z"/>
  </g>
  <g id="T">
    <path class="cls-8" d="m2095.09,572.81h54.44l-12.4,60.95h-53.98l-41.35,207.17c-1.58,9.48,3.42,18.01,15.95,19.04l28.93,2.38-6.91,67.74-55.65-.54c-6.41-.06-12.85-.84-18.9-2.96-27.43-9.58-43.8-38.14-37.6-68.38l43.07-224.44h-39.74l11.23-60.95h40.07l21.97-98.43h73.79l-22.92,98.43Z"/>
  </g>
  <g id="O">
    <path class="cls-8" d="m2346.61,834.36c-12.54,59.21-72.54,107.17-134.2,107.17s-100.8-47.96-88.26-107.17l37.56-173.13c12.53-58.46,73.3-106.42,134.19-106.42s100.8,47.96,88.27,106.42l-37.56,173.13Zm-40.5-173.13c4.15-17.24-8.15-31.48-26.1-31.48s-36.1,14.24-40.25,31.48l-37.56,173.13c-3.37,17.98,8.14,32.22,26.09,32.22s36.89-14.99,40.26-32.22l37.56-173.13Z"/>
  </g>
  <g id="W">
    <path class="cls-1" d="m2832.03,435c-1.67-2.28-4.36-3.65-7.2-3.65h-76.03c-3.98,0-7.51,2.67-8.6,6.5l-77.98,275.3,28.5-271.93c.26-2.52-.56-5.03-2.24-6.9-1.7-1.89-4.12-2.97-6.65-2.97h-83.12c-3.97,0-7.41,2.56-8.56,6.36l-80.83,269.36,34.79-265.63c.34-2.54-.44-5.11-2.14-7.05-1.71-1.94-4.15-3.05-6.72-3.05h-80.43c-4.63,0-8.45,3.47-8.89,8.08l-46.94,484.07c-.24,2.5.58,5,2.27,6.87,1.69,1.87,4.11,2.93,6.62,2.93h96.1c3.9,0,7.32-2.49,8.51-6.21l77.88-241.86-25.57,238.17c-.27,2.53.55,5.05,2.25,6.93,1.68,1.88,4.1,2.96,6.64,2.96h98.34c3.93,0,7.36-2.52,8.53-6.26l152.81-484.06c.86-2.7.37-5.69-1.32-7.98Zm-221.63,155.88c-.61-.13-1.25-.2-1.89-.2-3.87,0-7.27,2.49-8.47,6.2l-102.58,318.56h-79.74l45.21-466.2h62.14l-47.84,365.18c-.59,4.59,2.48,8.93,6.99,9.9.6.13,1.24.2,1.87.2,3.91,0,7.43-2.62,8.57-6.36l110.7-368.92h66.54l-38.29,365.41c-.48,4.65,2.6,8.81,7.18,9.7.57.11,1.14.17,1.72.17,3.97,0,7.5-2.68,8.59-6.51l104.46-368.77h57.07l-147.17,466.2h-81.83l33.8-314.86c.49-4.57-2.53-8.74-7.03-9.7Z"/>
  </g>
  <g id="A">
    <g>
      <path class="cls-12" d="m3005.09,591.14c-16.41-21.11-43.69-32.73-76.83-32.73-42.24,0-70.71,9.88-95.21,33.04-23.99,22.68-36.31,52.32-37.66,90.61-.08,2.04.7,4.05,2.12,5.52,1.42,1.46,3.39,2.3,5.43,2.3h69.78c4.08,0,7.4-3.2,7.55-7.28l.46-13.17c.52-14.51,9.38-27.37,22.05-32,3.63-1.33,7.33-2,11.02-2,6.68,0,12.5,2.54,15.98,6.98,3.18,4.04,4.11,9.28,2.71,15.15l-.09.39-.03.4-1.94,25.93c-.48,1.3-3.78,7.09-26.07,17.1-13.56,6.09-31.78,12.6-48.74,17.41l-.23.07-.22.09c-23.1,9.03-42.89,20.64-58.84,34.52-13,11.31-23.51,24.17-31.23,38.22-12.88,23.41-14.13,42.82-14.24,47.64-5.43,26.56.16,52.52,15.37,71.3,14,17.29,34.82,26.81,58.62,26.81,26.09,0,47.43-6.22,64.83-18.95l-.96,10.2c-.2,2.12.51,4.22,1.93,5.78,1.43,1.57,3.46,2.47,5.59,2.47h67.95c3.69,0,6.82-2.64,7.45-6.29l46.08-271.14c6.41-25.39,1.93-49.66-12.61-68.36Zm-100.57,330.68l2-21.31c.3-3.24-1.49-6.29-4.47-7.61-.97-.43-2-.65-3.06-.65-2.15,0-4.2.93-5.64,2.54-16.56,18.51-38.98,27.52-68.52,27.52-19.15,0-35.8-7.53-46.89-21.21-12.48-15.4-16.91-37.05-12.17-59.41.12-.59.18-1.18.16-1.76,0-.14-.08-17.76,11.68-39.77,15.3-28.64,43.85-51.8,82.57-66.99,4.29-1.22,23.66-6.87,42.52-14.69,26.38-10.94,40.31-21.25,42.58-31.52l.08-.35.03-.36,1.94-25.97c2.31-9.96.3-19.6-5.67-27.21-6.37-8.11-16.53-12.76-27.87-12.76-5.45,0-10.9.98-16.2,2.92-18.38,6.72-31.23,25.07-31.96,45.66l-.21,5.87h-54.49c2.48-30.35,13.14-54.06,32.48-72.35,21.44-20.26,46.81-28.91,84.84-28.91,28.37,0,51.42,9.55,64.9,26.9,11.65,14.99,15.13,34.79,9.8,55.77l-.05.2-.03.2-45.08,265.24h-53.27Z"/>
      <path class="cls-2" d="m2921.92,747.66c-1.22-.82-2.68-1.27-4.18-1.27h0c-1.32,0-2.62.35-3.77,1l-46.97,27.22c-15.09,8.75-27.82,21.26-36.81,36.19-8.52,14.14-8.4,30.96.31,44.98,8.04,12.94,21.31,20.35,36.4,20.35,1.27,0,2.55-.05,3.8-.16,22.62-1.89,41.19-19.61,44.15-42.12l10.37-78.93c.38-2.83-.92-5.69-3.31-7.27Zm-13.67,20.52l-8.37,63.71c-2.04,15.52-14.84,27.73-30.44,29.04-.83.07-1.67.1-2.5.1-9.78,0-18.38-4.82-23.6-13.22-5.66-9.11-5.73-20.03-.2-29.21,7.69-12.76,18.56-23.45,31.45-30.92l33.67-19.51Z"/>
    </g>
  </g>
  <g id="R">
    <path class="cls-7" d="m3247.55,563.01c-1.23-1.66-3.11-2.76-5.16-3-8.38-1.02-15.7-1.52-22.38-1.52h0c-17.87,0-32,3.68-44.45,11.58-8.3,5.26-16.06,12.44-24.14,22.43l2.47-18.71c.28-2.15-.38-4.3-1.79-5.93-1.45-1.65-3.51-2.58-5.68-2.58h-63.29c-3.54,0-6.64,2.52-7.37,5.99l-72.8,351.57c-.46,2.23.1,4.52,1.54,6.29,1.42,1.75,3.55,2.77,5.83,2.77h73.03c3.5,0,6.59-2.48,7.35-5.89l48.28-217.95v-.03s.01-.03.01-.03c8.62-41.31,33.38-61.68,75.69-62.27l14.42-.2c3.6-.05,6.68-2.66,7.31-6.22l12.5-70.52c.36-2.02-.13-4.13-1.36-5.79Zm-109.72,17.33l-5.39,40.93c-.46,3.49,1.62,6.88,4.93,8.07.81.29,1.67.44,2.54.44,2.61,0,5-1.33,6.39-3.56,24.99-40.37,42.19-52.68,73.65-52.68,3.92,0,8.12.19,12.73.59l-10,56.44-8.2.11c-24.58.34-44.72,6.83-59.85,19.27-15.13,12.44-25.34,30.92-30.35,54.91l-46.96,211.98h-57.74l69.68-336.5h48.58Z"/>
  </g>
  <g id="E">
    <g>
      <path class="cls-10" d="m3457.5,588.88c-18.39-22.53-46.78-34.94-79.93-34.94s-63.55,11.29-90.08,31.8c-26.6,20.56-44.53,47.94-50.5,77.08l-34.7,167.36c-5.88,29.09.39,56.72,17.65,77.82,18.37,22.45,46.68,34.81,79.74,34.81,31.22,0,63.02-11.37,89.54-32.02,26.58-20.69,44.7-48.22,51.02-77.52l5.4-25.38c.48-2.23-.07-4.52-1.51-6.29-1.45-1.78-3.58-2.79-5.85-2.79h-78.06c-3.53,0-6.62,2.51-7.35,5.96l-5.39,25.34c-3.14,14.12-17.37,25.22-32.38,25.22-6.95,0-12.78-2.38-16.41-6.71-3.37-4.01-4.65-9.5-3.61-15.45l11.07-52.63h139.08c3.55,0,6.65-2.52,7.36-6l22.36-108.68c5.86-28.65-.34-55.98-17.46-76.96Zm-164.81,182.57l-12.35,58.77-.02.08v.08c-1.87,10.49.57,20.4,6.85,27.89,6.53,7.8,16.45,12.09,27.94,12.09,22.14,0,42.38-15.93,47.07-37.06l4.15-19.45h62.68l-3.46,16.27c-11.61,53.84-68.08,97.65-125.86,97.65-28.46,0-52.64-10.4-68.1-29.3-14.35-17.54-19.52-40.72-14.56-65.28l34.69-167.34c10.93-53.42,67.38-96.87,125.85-96.87,28.55,0,52.8,10.45,68.28,29.42,14.21,17.42,19.32,40.3,14.38,64.43l-21.12,102.67h-139.06c-3.53,0-6.63,2.51-7.36,5.97Z"/>
      <path class="cls-3" d="m3312.39,719.66h67.13c3.53,0,6.63-2.51,7.36-5.97l10.04-47.89v-.06s.02-.06.02-.06c1.86-10.07-.51-19.69-6.67-27.09-6.56-7.88-16.55-12.23-28.13-12.23-10.51,0-21.11,3.7-29.86,10.42-8.8,6.76-14.91,15.95-17.21,25.88v.05s-.02.05-.02.05l-10.02,47.82c-.46,2.25.1,4.54,1.54,6.3,1.43,1.75,3.56,2.76,5.82,2.76Zm49.75-78.25c7.03,0,12.92,2.42,16.57,6.81,3.24,3.89,4.47,9.08,3.46,14.62l-8.76,41.78h-51.76l8.1-38.65c3.22-13.78,17.43-24.56,32.39-24.56Z"/>
    </g>
  </g>
  <g id="logo">
    <g>
      <polygon class="cls-6" points="545.02 204.08 545.02 1252.57 472.61 1182.52 396.63 1109.06 324.27 1039.07 324.27 877.34 396.63 930.27 396.63 1008.3 472.61 1081.81 472.61 329.47 325.58 414.37 325.58 330.78 472.61 245.87 545.02 204.08"/>
      <polygon class="cls-4" points="1060.7 377.62 1060.7 972.96 1001.26 1030.46 961.93 1068.48 892.68 1135.48 844.21 1182.37 773.38 1250.89 773.38 211.74 844.21 252.65 844.21 1081.65 892.68 1034.82 892.68 280.58 961.93 320.59 961.93 967.82 1001.26 929.75 1001.26 343.28 1060.7 377.62"/>
      <path class="cls-9" d="m309.91,166.22c0,10.13-8.19,18.33-18.33,18.33s-18.33-8.19-18.33-18.33,8.24-18.33,18.33-18.33,18.33,8.24,18.33,18.33Z"/>
      <path class="cls-5" d="m1046.69,166.22c0,10.13-8.19,18.33-18.33,18.33s-18.33-8.19-18.33-18.33,8.24-18.33,18.33-18.33,18.33,8.24,18.33,18.33Z"/>
      <path class="cls-11" d="m1153.72,0H166.24C74.46,0,0,74.46,0,166.24s74.46,166.24,166.24,166.24c78.45,0,144.19-54.29,161.67-127.39,10.4-9.71,16.86-23.52,16.86-38.86s-6.46-29.09-16.86-38.8c-9.5-8.87-22.26-14.33-36.34-14.33s-27.78,5.88-37.44,15.39c-9.71,9.66-15.7,23-15.7,37.75s5.99,28.09,15.65,37.75c-14.6,34.08-48.41,57.92-87.85,57.92-52.82,0-95.62-42.85-95.62-95.67s42.79-95.62,95.62-95.62h457.82v1258.48l2.15,2.05,26.04,25.15,6.04,5.83,6.04-5.83,24.68-23.84,6.88-6.62V70.62h457.82c52.82,0,95.62,42.79,95.62,95.62s-42.79,95.67-95.62,95.67c-39.43,0-73.25-23.84-87.85-57.92,9.66-9.66,15.65-23,15.65-37.75s-5.99-28.09-15.7-37.75c-9.66-9.5-22.84-15.39-37.44-15.39s-26.83,5.46-36.34,14.33c-10.4,9.71-16.86,23.52-16.86,38.8s6.46,29.14,16.86,38.86c17.49,73.09,83.23,127.39,161.67,127.39,91.79,0,166.24-74.4,166.24-166.24S1245.51,0,1153.72,0ZM260.81,152.07c5.3-11.66,17.07-19.8,30.77-19.8,18.8,0,33.97,15.23,33.97,33.97s-15.18,33.97-33.97,33.97c-13.71,0-25.47-8.14-30.77-19.8-2.05-4.31-3.15-9.08-3.15-14.18s1.1-9.87,3.15-14.18Zm798.34,28.35c-5.3,11.66-17.07,19.8-30.77,19.8-18.8,0-33.97-15.23-33.97-33.97s15.18-33.97,33.97-33.97c13.7,0,25.47,8.14,30.77,19.8,2.05,4.31,3.15,9.08,3.15,14.18s-1.1,9.87-3.15,14.18Z"/>
    </g>
  </g>
</svg>